# xmcd
#
# Track frame offsets:
#	150
#	13157
#	28895
#	38400
#	47755
#	65215
#	75355
#	86650
#	100040
#	115455
#	128172
#	144115
#	161707
#	174547
#
# Disc length: 2536 seconds
#
# Revision: 1
# Processed by: cddbd v1.4PL0 Copyright (c) Steve Scherf et al.
# Submitted via: audiograbber 1.80
#
DISCID=b309e60e
DTITLE=Vários - Ráizes do Sertão
DYEAR=1900
DGENRE=
TTITLE0=Chitãozinho and Xororó - Moreninha Linda
TTITLE1=Tinoco - Luar do Sertão
TTITLE2=Cascatinha and Inhana - Espinho de Amor
TTITLE3=Pedro Bento and Zé da Estrada - Ranchinho de Taquara
TTITLE4=Duo Guarujá - Meu Primeiro Amor
TTITLE5=Tonico and Tinoco - De Vencido a Vencedor
TTITLE6=Irmãs Galvão - Canta com a Natureza
TTITLE7=Tibagi and Miltinho - Beijinho Doce
TTITLE8=Duo Guarujá - Cabecinha no Ombro
TTITLE9=Pedro Bento and Zé da Estrada - Boneca Cobiçada
TTITLE10=Zeca Mineiro and Luizinho - Fuscão Preto
TTITLE11=Tinoco - Xico Mineiro
TTITLE12=Zico and Zeca - A Enxada e a Caneta
TTITLE13=Zé Fortuna and Pitangueira - Lembranças
EXTD=
EXTT0=
EXTT1=
EXTT2=
EXTT3=
EXTT4=
EXTT5=
EXTT6=
EXTT7=
EXTT8=
EXTT9=
EXTT10=
EXTT11=
EXTT12=
EXTT13=
PLAYORDER=
